<svg xmlns="http://www.w3.org/2000/svg" xmlns:xlink="http://www.w3.org/1999/xlink" viewBox="0 0 202.3 197.9" style="width: 32px;height: 32px;enable-background:new 0 0 202.3 197.9" xml:space="preserve"><path d="M157.3 128s-12.5 13.7-27.9-1.6c0 0-46.5-49.7-59.4-57 0 0-21-15-38.4 10.1 0 0-5.3 5.7.4 5.3 0 0 13.3-19.4 37.6-1.2 0 0 10.8 10.2 23.2 22.8L54.6 162c0 8.5 5.3 0 5.3 0l18.6-25.5c8.9 3.6 1.6 28.7 1.6 28.7 6.5 4.9 8.3-11.4 8.3-11.4.8-4.8-1.8-5.3 2.6-16.3 4.2-10.2.7-13.1.7-13.1l-8.1.8 12.7-15.1c8.6 8.9 17.5 18.5 23.7 26.4 0 0 15 17 32.3 2.4 0 0 12.9-10.9 12.5-15.4.1.1-.7-1.5-7.5 4.5z" style="fill: #d70c19;"/><path d="M141.1 57.6s0-8.1 3.2-9.3l6.9-3.6s6.5 2.8-1.2 11.7c0 0-3.7 1.6-8.9 1.2zM128.4 65.5l8.9-7.7s1.6-1.4 1.3-4.3l-.7-6.7s-1.8-1.2-4.3 1.2l-4.5 5s-.7.9-1.4 4.5c0 .1-.3 6.4.7 8zM128.8 71.6l11.7.8s2.1.2 4-2.2l4.2-5.2s-.4-2.2-3.9-2.1l-6.7.4s-1.1.2-4.2 2.3c0-.1-4.7 4.2-5.1 6zM115 79.9l8.9-7.7s1.6-1.4 1.3-4.3l-.7-6.7s-1.8-1.2-4.3 1.2l-4.5 5s-.7.9-1.4 4.5c.1.1-.3 6.4.7 8zM116.6 84l11.7.8s2.1.2 4-2.2l4.2-5.2s-.4-2.2-3.9-2.1l-6.7.4s-1.1.2-4.1 2.3c-.1-.1-4.8 4.1-5.2 6zM101.3 93.9l8.9-7.7s1.6-1.4 1.3-4.3l-.7-6.7s-1.8-1.2-4.3 1.2l-4.5 5s-.7.9-1.4 4.5c0 .1-.4 6.4.7 8zM104.5 97.7l11.7.8s2.1.2 4-2.2l4.2-5.2s-.4-2.2-3.9-2.1l-6.7.4s-1.1.2-4.1 2.3c-.2-.1-4.9 4.2-5.2 6z" style="&#10;    fill: #d70c19;&#10;"/><path d="M11.5 99.5c0-49 39.7-88.6 88.6-88.6 49 0 88.6 39.7 88.6 88.6s-39.7 88.6-88.6 88.6c-49 .1-88.6-39.6-88.6-88.6z" style="fill:none;stroke: #d70c19;stroke-width:9.795"/><path id="a" d="M1 99.5C1 44.6 45.6 0 100.5 0c55 0 99.5 44.6 99.5 99.5 0 55-44.6 99.5-99.5 99.5S1 154.5 1 99.5z" style="fill:none"/></svg>