<svg xmlns="http://www.w3.org/2000/svg" width="21.6" height="21.6" viewBox="0 0 21.6 21.6">
  <g id="Icon_feather-search" data-name="Icon feather-search" transform="translate(-3 -3)">
    <path id="Path_497" data-name="Path 497" d="M12.72,3a9.72,9.72,0,0,1,6.873,16.593A9.72,9.72,0,1,1,5.847,5.847,9.657,9.657,0,0,1,12.72,3Zm0,17.28a7.56,7.56,0,1,0-7.56-7.56A7.569,7.569,0,0,0,12.72,20.28Z" fill="#fff"/>
    <path id="Path_498" data-name="Path 498" d="M29.253,30.333a1.077,1.077,0,0,1-.764-.316l-4.7-4.7a1.08,1.08,0,0,1,1.527-1.527l4.7,4.7a1.08,1.08,0,0,1-.764,1.844Z" transform="translate(-5.733 -5.733)" fill="#fff"/>
  </g>
</svg>